<svg width="64" height="64" viewBox="0 0 64 64" fill="none" xmlns="http://www.w3.org/2000/svg">
<path d="M56.4572 32.0001C56.4572 45.5074 45.5074 56.4572 32.0001 56.4572C18.4928 56.4572 7.54293 45.5074 7.54293 32.0001C7.54293 18.4928 18.4928 7.54293 32.0001 7.54293C45.5074 7.54293 56.4572 18.4928 56.4572 32.0001Z" stroke="#FCFCFC" stroke-width="3.65714"/>
<path d="M36.6773 35.2001H40.7602C40.9555 35.2001 41.0609 34.9711 40.9338 34.8228L30.3542 22.48C30.3108 22.4293 30.2474 22.4001 30.1807 22.4001H12.9396C12.7467 22.4001 12.6405 22.6242 12.7626 22.7735L15.4743 26.0877C15.5177 26.1408 15.5827 26.1716 15.6512 26.1716H28.8085C28.8756 26.1716 28.9394 26.2011 28.9828 26.2523L36.503 35.1194C36.5465 35.1706 36.6102 35.2001 36.6773 35.2001Z" fill="#FCFCFC"/>
<path d="M26.2774 41.6001H30.3602C30.5555 41.6001 30.6609 41.3711 30.5338 41.2228L19.9542 28.88C19.9108 28.8293 19.8474 28.8001 19.7807 28.8001H2.53955C2.34672 28.8001 2.24054 29.0242 2.36265 29.1735L5.07434 32.4877C5.11775 32.5408 5.18268 32.5716 5.25124 32.5716H18.4085C18.4756 32.5716 18.5394 32.6011 18.5828 32.6523L26.103 41.5194C26.1465 41.5706 26.2102 41.6001 26.2774 41.6001Z" fill="#FCFCFC"/>
<path d="M33.4113 22.4001H37.4942C37.5614 22.4001 37.6251 22.4297 37.6685 22.4809L45.1887 31.348C45.2322 31.3992 45.2959 31.4287 45.3631 31.4287H58.5203C58.5889 31.4287 58.6538 31.4595 58.6972 31.5125L61.4089 34.8268C61.531 34.9761 61.4248 35.2001 61.232 35.2001H43.9909C43.9242 35.2001 43.8608 35.171 43.8174 35.1203L33.2378 22.7775C33.1107 22.6292 33.216 22.4001 33.4113 22.4001Z" fill="#FCFCFC"/>
<path d="M27.0942 28.8001H23.0113C22.816 28.8001 22.7107 29.0292 22.8378 29.1775L33.4174 41.5203C33.4608 41.571 33.5242 41.6001 33.5909 41.6001H50.832C51.0248 41.6001 51.131 41.3761 51.0089 41.2268L48.2972 37.9125C48.2538 37.8595 48.1889 37.8287 48.1203 37.8287H34.9631C34.8959 37.8287 34.8322 37.7992 34.7887 37.748L27.2685 28.8809C27.2251 28.8297 27.1614 28.8001 27.0942 28.8001Z" fill="#FCFCFC"/>
<path d="M36.6773 35.2001H40.7602C40.9555 35.2001 41.0609 34.9711 40.9338 34.8228L30.3542 22.48C30.3108 22.4293 30.2474 22.4001 30.1807 22.4001H12.9396C12.7467 22.4001 12.6405 22.6242 12.7626 22.7735L15.4743 26.0877C15.5177 26.1408 15.5827 26.1716 15.6512 26.1716H28.8085C28.8756 26.1716 28.9394 26.2011 28.9828 26.2523L36.503 35.1194C36.5465 35.1706 36.6102 35.2001 36.6773 35.2001Z" stroke="#FCFCFC" stroke-width="0.457143"/>
<path d="M26.2774 41.6001H30.3602C30.5555 41.6001 30.6609 41.3711 30.5338 41.2228L19.9542 28.88C19.9108 28.8293 19.8474 28.8001 19.7807 28.8001H2.53955C2.34672 28.8001 2.24054 29.0242 2.36265 29.1735L5.07434 32.4877C5.11775 32.5408 5.18268 32.5716 5.25124 32.5716H18.4085C18.4756 32.5716 18.5394 32.6011 18.5828 32.6523L26.103 41.5194C26.1465 41.5706 26.2102 41.6001 26.2774 41.6001Z" stroke="#FCFCFC" stroke-width="0.457143"/>
<path d="M33.4113 22.4001H37.4942C37.5614 22.4001 37.6251 22.4297 37.6685 22.4809L45.1887 31.348C45.2322 31.3992 45.2959 31.4287 45.3631 31.4287H58.5203C58.5889 31.4287 58.6538 31.4595 58.6972 31.5125L61.4089 34.8268C61.531 34.9761 61.4248 35.2001 61.232 35.2001H43.9909C43.9242 35.2001 43.8608 35.171 43.8174 35.1203L33.2378 22.7775C33.1107 22.6292 33.216 22.4001 33.4113 22.4001Z" stroke="#FCFCFC" stroke-width="0.457143"/>
<path d="M27.0942 28.8001H23.0113C22.816 28.8001 22.7107 29.0292 22.8378 29.1775L33.4174 41.5203C33.4608 41.571 33.5242 41.6001 33.5909 41.6001H50.832C51.0248 41.6001 51.131 41.3761 51.0089 41.2268L48.2972 37.9125C48.2538 37.8595 48.1889 37.8287 48.1203 37.8287H34.9631C34.8959 37.8287 34.8322 37.7992 34.7887 37.748L27.2685 28.8809C27.2251 28.8297 27.1614 28.8001 27.0942 28.8001Z" stroke="#FCFCFC" stroke-width="0.457143"/>
</svg>
