<svg width="49" height="49" viewBox="0 0 49 49" fill="none" xmlns="http://www.w3.org/2000/svg">
<g clip-path="url(#clip0_51835_20088)">
<rect width="49" height="49" rx="24.5" fill="#051711"/>
<path d="M16.1702 31.647C15.7904 31.647 15.4903 31.5429 15.2698 31.3346C15.0615 31.1141 14.9574 30.8017 14.9574 30.3975V19.7951C14.9574 19.3909 15.0615 19.0846 15.2698 18.8764C15.4903 18.6559 15.8027 18.5456 16.2069 18.5456H22.6198C22.9383 18.5456 23.1772 18.6252 23.3364 18.7845C23.4957 18.9437 23.5753 19.1704 23.5753 19.4644C23.5753 19.7706 23.4957 20.0095 23.3364 20.181C23.1772 20.3402 22.9383 20.4199 22.6198 20.4199H17.3094V24.0765H22.2339C22.5402 24.0765 22.7729 24.1561 22.9322 24.3154C23.1037 24.4746 23.1894 24.7012 23.1894 24.9952C23.1894 25.3015 23.1037 25.5404 22.9322 25.7119C22.7729 25.8711 22.5402 25.9507 22.2339 25.9507H17.3094V30.3975C17.3094 31.2305 16.9297 31.647 16.1702 31.647ZM26.4514 31.647C26.0717 31.647 25.7777 31.5429 25.5694 31.3346C25.3734 31.1141 25.2754 30.814 25.2754 30.4342V19.74C25.2754 19.348 25.3795 19.054 25.5878 18.858C25.796 18.6497 26.09 18.5456 26.4698 18.5456H30.8982C32.3192 18.5456 33.4155 18.8886 34.1873 19.5746C34.959 20.2484 35.3449 21.1977 35.3449 22.4227C35.3449 23.219 35.1673 23.905 34.812 24.4807C34.469 25.0565 33.9668 25.4975 33.3053 25.8037C32.6438 26.11 31.8414 26.2631 30.8982 26.2631L31.0635 25.9875H31.6699C32.1722 25.9875 32.607 26.11 32.9745 26.355C33.3543 26.6 33.685 26.9859 33.9668 27.5126L35.3449 30.0667C35.4919 30.324 35.5593 30.5751 35.547 30.8201C35.5348 31.0651 35.4429 31.2672 35.2714 31.4265C35.0999 31.5735 34.8488 31.647 34.518 31.647C34.1873 31.647 33.9178 31.5796 33.7095 31.4449C33.5013 31.2979 33.3175 31.0774 33.1583 30.7834L31.3024 27.3656C31.0819 26.9491 30.8185 26.6735 30.5123 26.5387C30.2183 26.3917 29.8385 26.3182 29.373 26.3182H27.6274V30.4342C27.6274 30.814 27.5294 31.1141 27.3334 31.3346C27.1374 31.5429 26.8434 31.647 26.4514 31.647ZM27.6274 24.5726H30.4939C31.3392 24.5726 31.9762 24.4011 32.4049 24.0581C32.8459 23.7029 33.0664 23.1761 33.0664 22.4779C33.0664 21.7919 32.8459 21.2774 32.4049 20.9344C31.9762 20.5791 31.3392 20.4015 30.4939 20.4015H27.6274V24.5726Z" fill="white"/>
</g>
<rect x="0.765625" y="0.765625" width="47.4688" height="47.4688" rx="23.7344" stroke="#F5F5F5" stroke-width="1.53125"/>
<defs>
<clipPath id="clip0_51835_20088">
<rect width="49" height="49" rx="24.5" fill="white"/>
</clipPath>
</defs>
</svg>
