<svg width="24" height="24" viewBox="0 0 24 24" fill="none" xmlns="http://www.w3.org/2000/svg">
<path d="M8.50191 3.10156V4.90019C8.47697 5.20288 8.6993 5.46968 9.00153 5.49973H12.9985C13.3007 5.46968 13.523 5.20288 13.4981 4.90019V3.10156" stroke="#222222" stroke-width="1.5" stroke-linecap="round" stroke-linejoin="round"/>
<path d="M10 21H7C5.89543 21 5 20.1046 5 19V5C5 3.89543 5.89543 3 7 3H15C16.1046 3 17 3.89543 17 5V9" stroke="#222222" stroke-width="1.5" stroke-linecap="round" stroke-linejoin="round"/>
<path fill-rule="evenodd" clip-rule="evenodd" d="M13 14.9375V16.069C13 18.1532 14.2929 20.0188 16.2444 20.7506L16.8244 20.9682C16.9376 21.0106 17.0624 21.0106 17.1756 20.9682L17.7556 20.7506C19.7071 20.0188 21 18.1532 21 16.069V14.9375C21 14.5001 20.7158 14.1135 20.2983 13.983L17.2983 13.0455C17.1041 12.9848 16.8959 12.9848 16.7017 13.0455L13.7017 13.983C13.2842 14.1135 13 14.5001 13 14.9375Z" stroke="#222222" stroke-width="1.5" stroke-linecap="round" stroke-linejoin="round"/>
</svg>
