<svg width="24" height="24" viewBox="0 0 24 24" fill="none" xmlns="http://www.w3.org/2000/svg">
<path d="M14.1931 5.5809C16.5249 7.91272 16.5249 11.6933 14.1931 14.0252C11.8613 16.357 8.08062 16.357 5.7488 14.0252C3.41698 11.6933 3.41698 7.91272 5.7488 5.5809C8.08062 3.24908 11.8613 3.24908 14.1931 5.5809" stroke="#040E2C" stroke-width="1.5" stroke-linecap="round" stroke-linejoin="round"/>
<path d="M14.1931 5.5809C16.5249 7.91272 16.5249 11.6933 14.1931 14.0252C11.8613 16.357 8.08062 16.357 5.7488 14.0252C3.41698 11.6933 3.41698 7.91272 5.7488 5.5809C8.08062 3.24908 11.8613 3.24908 14.1931 5.5809" stroke="#0F215C" stroke-width="1.5" stroke-linecap="round" stroke-linejoin="round"/>
<path d="M14.15 14.0586L20 19.9886" stroke="#040E2C" stroke-width="1.5" stroke-linecap="round" stroke-linejoin="round"/>
<path d="M14.15 14.0586L20 19.9886" stroke="#0F215C" stroke-width="1.5" stroke-linecap="round" stroke-linejoin="round"/>
</svg>
