<svg width="26" height="26" viewBox="0 0 26 26" fill="none" xmlns="http://www.w3.org/2000/svg">
<path d="M12.9998 7.99805C14.2273 7.99805 15.2227 8.99346 15.2227 10.221C15.2227 11.4485 14.2273 12.4439 12.9998 12.4439C11.7723 12.4439 10.7769 11.4495 10.7769 10.221C10.7769 8.99246 11.7723 7.99805 12.9998 7.99805" stroke="#222222" stroke-width="1.5" stroke-linecap="round" stroke-linejoin="round"/>
<path fill-rule="evenodd" clip-rule="evenodd" d="M21.0032 12.2423C21.0032 16.6121 17.8449 20.7078 13.5201 21.9323C13.182 22.0283 12.8178 22.0283 12.4797 21.9323C8.1549 20.7088 4.99658 16.6121 4.99658 12.2423V8.21258C4.99658 7.40024 5.48779 6.66793 6.2401 6.3608L11.1061 4.36998C12.3206 3.87277 13.6812 3.87277 14.8947 4.36998L19.7607 6.3608C20.512 6.66793 21.0032 7.40024 21.0032 8.21258V12.2423Z" stroke="#222222" stroke-width="1.5" stroke-linecap="round" stroke-linejoin="round"/>
<path d="M17.0014 16.0015C16.8853 15.7084 16.7043 15.4463 16.4732 15.2322V15.2322C16.082 14.8701 15.5718 14.668 15.0386 14.668C14.1492 14.668 11.8512 14.668 10.9619 14.668C10.4286 14.668 9.91743 14.8701 9.52627 15.2322V15.2322C9.29517 15.4463 9.1151 15.7084 8.99805 16.0015" stroke="#222222" stroke-width="1.5" stroke-linecap="round" stroke-linejoin="round"/>
</svg>
