<svg width="130" height="130" viewBox="0 0 130 130" fill="none" xmlns="http://www.w3.org/2000/svg">
<path d="M114.679 65C114.679 92.4367 92.4367 114.679 65 114.679C37.5633 114.679 15.3215 92.4367 15.3215 65C15.3215 37.5633 37.5633 15.3215 65 15.3215C92.4367 15.3215 114.679 37.5633 114.679 65Z" stroke="#1F2221" stroke-width="7.42857"/>
<path d="M74.5008 71.5H82.7942C83.1908 71.5 83.4048 71.0347 83.1467 70.7336L61.6569 45.6621C61.5687 45.5592 61.4399 45.5 61.3044 45.5H26.2834C25.8917 45.5 25.676 45.9551 25.9241 46.2583L31.4322 52.9904C31.5204 53.0982 31.6523 53.1607 31.7915 53.1607H58.5172C58.6536 53.1607 58.7831 53.2207 58.8713 53.3247L74.1467 71.336C74.2349 71.44 74.3644 71.5 74.5008 71.5Z" fill="#194EF0"/>
<path d="M74.5008 71.5H82.7942C83.1908 71.5 83.4048 71.0347 83.1467 70.7336L61.6569 45.6621C61.5687 45.5592 61.4399 45.5 61.3044 45.5H26.2834C25.8917 45.5 25.676 45.9551 25.9241 46.2583L31.4322 52.9904C31.5204 53.0982 31.6523 53.1607 31.7915 53.1607H58.5172C58.6536 53.1607 58.7831 53.2207 58.8713 53.3247L74.1467 71.336C74.2349 71.44 74.3644 71.5 74.5008 71.5Z" fill="#0E3729"/>
<path d="M53.3758 84.5H61.6692C62.0658 84.5 62.2798 84.0347 62.0217 83.7336L40.5319 58.6621C40.4437 58.5592 40.3149 58.5 40.1794 58.5H5.1584C4.76672 58.5 4.55104 58.9551 4.79907 59.2583L10.3072 65.9904C10.3954 66.0982 10.5273 66.1607 10.6665 66.1607H37.3922C37.5286 66.1607 37.6581 66.2207 37.7463 66.3247L53.0217 84.336C53.1099 84.44 53.2394 84.5 53.3758 84.5Z" fill="#194EF0"/>
<path d="M53.3758 84.5H61.6692C62.0658 84.5 62.2798 84.0347 62.0217 83.7336L40.5319 58.6621C40.4437 58.5592 40.3149 58.5 40.1794 58.5H5.1584C4.76672 58.5 4.55104 58.9551 4.79907 59.2583L10.3072 65.9904C10.3954 66.0982 10.5273 66.1607 10.6665 66.1607H37.3922C37.5286 66.1607 37.6581 66.2207 37.7463 66.3247L53.0217 84.336C53.1099 84.44 53.2394 84.5 53.3758 84.5Z" fill="#0E3729"/>
<path d="M67.8667 45.5H76.1601C76.2964 45.5 76.4259 45.56 76.5142 45.664L91.7896 63.6753C91.8778 63.7793 92.0073 63.8393 92.1437 63.8393H118.869C119.009 63.8393 119.141 63.9018 119.229 64.0096L124.737 70.7417C124.985 71.0449 124.769 71.5 124.377 71.5H89.3565C89.2209 71.5 89.0922 71.4408 89.004 71.3379L67.5142 46.2664C67.256 45.9653 67.47 45.5 67.8667 45.5Z" fill="#194EF0"/>
<path d="M67.8667 45.5H76.1601C76.2964 45.5 76.4259 45.56 76.5142 45.664L91.7896 63.6753C91.8778 63.7793 92.0073 63.8393 92.1437 63.8393H118.869C119.009 63.8393 119.141 63.9018 119.229 64.0096L124.737 70.7417C124.985 71.0449 124.769 71.5 124.377 71.5H89.3565C89.2209 71.5 89.0922 71.4408 89.004 71.3379L67.5142 46.2664C67.256 45.9653 67.47 45.5 67.8667 45.5Z" fill="#0E3729"/>
<path d="M55.0351 58.5H46.7417C46.345 58.5 46.131 58.9653 46.3892 59.2664L67.879 84.3379C67.9672 84.4408 68.0959 84.5 68.2315 84.5H103.252C103.644 84.5 103.86 84.0449 103.612 83.7417L98.1037 77.0096C98.0155 76.9018 97.8836 76.8393 97.7443 76.8393H71.0187C70.8823 76.8393 70.7528 76.7793 70.6646 76.6753L55.3891 58.664C55.3009 58.56 55.1714 58.5 55.0351 58.5Z" fill="#194EF0"/>
<path d="M55.0351 58.5H46.7417C46.345 58.5 46.131 58.9653 46.3892 59.2664L67.879 84.3379C67.9672 84.4408 68.0959 84.5 68.2315 84.5H103.252C103.644 84.5 103.86 84.0449 103.612 83.7417L98.1037 77.0096C98.0155 76.9018 97.8836 76.8393 97.7443 76.8393H71.0187C70.8823 76.8393 70.7528 76.7793 70.6646 76.6753L55.3891 58.664C55.3009 58.56 55.1714 58.5 55.0351 58.5Z" fill="#0E3729"/>
<path d="M74.5008 71.5H82.7942C83.1908 71.5 83.4048 71.0347 83.1467 70.7336L61.6569 45.6621C61.5687 45.5592 61.4399 45.5 61.3044 45.5H26.2834C25.8917 45.5 25.676 45.9551 25.9241 46.2583L31.4322 52.9904C31.5204 53.0982 31.6523 53.1607 31.7915 53.1607H58.5172C58.6536 53.1607 58.7831 53.2207 58.8713 53.3247L74.1467 71.336C74.2349 71.44 74.3644 71.5 74.5008 71.5Z" stroke="#0E3125" stroke-width="0.928571"/>
<path d="M53.3758 84.5H61.6692C62.0658 84.5 62.2798 84.0347 62.0217 83.7336L40.5319 58.6621C40.4437 58.5592 40.3149 58.5 40.1794 58.5H5.1584C4.76672 58.5 4.55104 58.9551 4.79907 59.2583L10.3072 65.9904C10.3954 66.0982 10.5273 66.1607 10.6665 66.1607H37.3922C37.5286 66.1607 37.6581 66.2207 37.7463 66.3247L53.0217 84.336C53.1099 84.44 53.2394 84.5 53.3758 84.5Z" stroke="#0E3125" stroke-width="0.928571"/>
<path d="M67.8667 45.5H76.1601C76.2964 45.5 76.4259 45.56 76.5142 45.664L91.7896 63.6753C91.8778 63.7793 92.0073 63.8393 92.1437 63.8393H118.869C119.009 63.8393 119.141 63.9018 119.229 64.0096L124.737 70.7417C124.985 71.0449 124.769 71.5 124.377 71.5H89.3565C89.2209 71.5 89.0922 71.4408 89.004 71.3379L67.5142 46.2664C67.256 45.9653 67.47 45.5 67.8667 45.5Z" stroke="#0E3125" stroke-width="0.928571"/>
<path d="M55.0351 58.5H46.7417C46.345 58.5 46.131 58.9653 46.3892 59.2664L67.879 84.3379C67.9672 84.4408 68.0959 84.5 68.2315 84.5H103.252C103.644 84.5 103.86 84.0449 103.612 83.7417L98.1037 77.0096C98.0155 76.9018 97.8836 76.8393 97.7443 76.8393H71.0187C70.8823 76.8393 70.7528 76.7793 70.6646 76.6753L55.3891 58.664C55.3009 58.56 55.1714 58.5 55.0351 58.5Z" stroke="#0E3125" stroke-width="0.928571"/>
</svg>
