<svg width="24" height="24" viewBox="0 0 24 24" fill="none" xmlns="http://www.w3.org/2000/svg">
<path d="M18 4C19.1046 4 20 4.89543 20 6V19C20 20.1046 19.1046 21 18 21H6C4.89543 21 4 20.1046 4 19V6C4 4.89543 4.89543 4 6 4" stroke="#222222" stroke-width="1.5" stroke-linecap="round" stroke-linejoin="round"/>
<path d="M6 4H9.5" stroke="#222222" stroke-width="1.5" stroke-linecap="round" stroke-linejoin="round"/>
<path d="M14.5 4H18" stroke="#222222" stroke-width="1.5" stroke-linecap="round" stroke-linejoin="round"/>
<path fill-rule="evenodd" clip-rule="evenodd" d="M10.5 2H13.5C14.0523 2 14.5 2.44772 14.5 3V6H9.5V3C9.5 2.44772 9.94772 2 10.5 2Z" stroke="#222222" stroke-width="1.5" stroke-linecap="round" stroke-linejoin="round"/>
<circle cx="12" cy="11" r="2" stroke="#222222" stroke-width="1.5" stroke-linecap="round" stroke-linejoin="round"/>
<path d="M12 9C13.1046 9 14 9.89543 14 11C14 12.1046 13.1046 13 12 13" stroke="#222222" stroke-width="1.5" stroke-linecap="round" stroke-linejoin="round"/>
<path d="M15.5 17.5C15.5 16.3954 14.6046 15.5 13.5 15.5H10.5C9.39543 15.5 8.5 16.3954 8.5 17.5" stroke="#222222" stroke-width="1.5" stroke-linecap="round" stroke-linejoin="round"/>
</svg>
