<svg width="25" height="24" viewBox="0 0 25 24" fill="none" xmlns="http://www.w3.org/2000/svg">
<path d="M8.6665 20H5.6665C4.56193 20 3.6665 19.1046 3.6665 18V5C3.6665 3.89543 4.56193 3 5.6665 3H14.6665C15.7711 3 16.6665 3.89543 16.6665 5V9" stroke="#0A2C20" stroke-width="1.5" stroke-linecap="round" stroke-linejoin="round"/>
<path d="M8.5049 13.1618C7.58883 12.2438 7.58961 10.7572 8.50666 9.84015C9.4237 8.92311 10.9103 8.92232 11.8283 9.83839" stroke="#0A2C20" stroke-width="1.5" stroke-linecap="round" stroke-linejoin="round"/>
<path d="M7.6665 17H6.6665" stroke="#0A2C20" stroke-width="1.5" stroke-linecap="round" stroke-linejoin="round"/>
<path d="M13.6665 6H12.6665" stroke="#0A2C20" stroke-width="1.5" stroke-linecap="round" stroke-linejoin="round"/>
<path d="M21.6665 16H11.6665" stroke="#0A2C20" stroke-width="1.5" stroke-linecap="round" stroke-linejoin="round"/>
<path fill-rule="evenodd" clip-rule="evenodd" d="M19.6665 13H13.6665C12.5619 13 11.6665 13.8954 11.6665 15V19C11.6665 20.1046 12.5619 21 13.6665 21H19.6665C20.7711 21 21.6665 20.1046 21.6665 19V15C21.6665 13.8954 20.7711 13 19.6665 13Z" stroke="#0A2C20" stroke-width="1.5" stroke-linecap="round" stroke-linejoin="round"/>
</svg>
