<svg width="25" height="24" viewBox="0 0 25 24" fill="none" xmlns="http://www.w3.org/2000/svg">
<path d="M6.33301 15H7.33301" stroke="#0A2C20" stroke-width="1.5" stroke-linecap="round" stroke-linejoin="round"/>
<path d="M17.333 7H18.333" stroke="#0A2C20" stroke-width="1.5" stroke-linecap="round" stroke-linejoin="round"/>
<path d="M10.5653 12.7678C9.93374 12.1363 9.68708 11.2157 9.91825 10.353C10.1494 9.49028 10.8233 8.81641 11.686 8.58524C12.5488 8.35407 13.4693 8.60073 14.1008 9.23229" stroke="#0A2C20" stroke-width="1.5" stroke-linecap="round" stroke-linejoin="round"/>
<path d="M10.333 18H6.33301C4.67615 18 3.33301 16.6569 3.33301 15V7C3.33301 5.34315 4.67615 4 6.33301 4H18.333C19.9899 4 21.333 5.34315 21.333 7V10" stroke="#0A2C20" stroke-width="1.5" stroke-linecap="round" stroke-linejoin="round"/>
<circle cx="17.833" cy="16.5" r="4.5" stroke="#0A2C20" stroke-width="1.5" stroke-linecap="round" stroke-linejoin="round"/>
<path d="M16.583 16.3872L17.583 17.3872L19.083 15.8872" stroke="#0A2C20" stroke-width="1.5" stroke-linecap="round" stroke-linejoin="round"/>
</svg>
