<svg width="282" height="282" viewBox="0 0 282 282" fill="none" xmlns="http://www.w3.org/2000/svg">
<g clip-path="url(#clip0_51843_19841)">
<rect width="282" height="282"/>
<mask id="mask0_51843_19841" style="mask-type:alpha" maskUnits="userSpaceOnUse" x="0" y="0" width="282" height="282">
<rect width="282" height="282"/>
</mask>
<g mask="url(#mask0_51843_19841)">
<g style="mix-blend-mode:overlay">
<rect width="282" height="282" fill="#3E81E6"/>
</g>
</g>
<rect width="282" height="282"/>
<mask id="mask1_51843_19841" style="mask-type:alpha" maskUnits="userSpaceOnUse" x="0" y="0" width="282" height="282">
<rect width="282" height="282"/>
</mask>
<g mask="url(#mask1_51843_19841)">
<g style="mix-blend-mode:overlay">
<rect width="282" height="282" fill="#6AC7EC"/>
</g>
</g>
<rect width="282" height="282"/>
<mask id="mask2_51843_19841" style="mask-type:alpha" maskUnits="userSpaceOnUse" x="0" y="0" width="282" height="282">
<rect width="282" height="282"/>
</mask>
<g mask="url(#mask2_51843_19841)">
<g style="mix-blend-mode:overlay">
<rect width="282" height="282" fill="#EFAC4D"/>
</g>
</g>
<rect width="282" height="282"/>
<mask id="mask3_51843_19841" style="mask-type:alpha" maskUnits="userSpaceOnUse" x="0" y="0" width="282" height="282">
<rect width="282" height="282"/>
</mask>
<g mask="url(#mask3_51843_19841)">
<g style="mix-blend-mode:overlay">
<rect width="282" height="282" fill="#C7D3DF"/>
</g>
</g>
<rect width="282" height="282"/>
<mask id="mask4_51843_19841" style="mask-type:alpha" maskUnits="userSpaceOnUse" x="0" y="0" width="282" height="282">
<rect width="282" height="282"/>
</mask>
<g mask="url(#mask4_51843_19841)">
<g style="mix-blend-mode:overlay">
<rect width="282" height="282" fill="#495173"/>
</g>
</g>
<rect width="282" height="282"/>
<mask id="mask5_51843_19841" style="mask-type:alpha" maskUnits="userSpaceOnUse" x="0" y="0" width="282" height="282">
<rect width="282" height="282"/>
</mask>
<g mask="url(#mask5_51843_19841)">
<g style="mix-blend-mode:overlay">
<rect width="282" height="282" fill="#3E81E6"/>
</g>
</g>
</g>
<defs>
<clipPath id="clip0_51843_19841">
<rect width="282" height="282" fill="white"/>
</clipPath>
</defs>
</svg>
