<svg width="24" height="24" viewBox="0 0 24 24" fill="none" xmlns="http://www.w3.org/2000/svg">
<path d="M13.6788 12.9709C14.6058 13.8979 14.6058 15.4019 13.6788 16.3299C12.7518 17.2569 11.2478 17.2569 10.3198 16.3299C9.39276 15.4029 9.39276 13.8989 10.3198 12.9709C11.2478 12.0429 12.7518 12.0429 13.6788 12.9709" stroke="white" stroke-width="1.5" stroke-linecap="round" stroke-linejoin="round"/>
<path d="M7 18H6" stroke="white" stroke-width="1.5" stroke-linecap="round" stroke-linejoin="round"/>
<path d="M18 11H17" stroke="white" stroke-width="1.5" stroke-linecap="round" stroke-linejoin="round"/>
<path fill-rule="evenodd" clip-rule="evenodd" d="M19 20.9H4.9C3.851 20.9 3 20.049 3 19V9.9C3 8.851 3.851 8 4.9 8H19.1C20.149 8 21 8.851 21 9.9V18.9C21 20.005 20.105 20.9 19 20.9Z" stroke="white" stroke-width="1.5" stroke-linecap="round" stroke-linejoin="round"/>
<path d="M19 5H5" stroke="white" stroke-width="1.5" stroke-linecap="round" stroke-linejoin="round"/>
<path d="M18 2H6" stroke="white" stroke-width="1.5" stroke-linecap="round" stroke-linejoin="round"/>
</svg>
