<svg width="24" height="24" viewBox="0 0 24 24" fill="none" xmlns="http://www.w3.org/2000/svg">
<path d="M17.0021 5.99777H16.1556" stroke="#0A2C20" stroke-width="1.5" stroke-linecap="round" stroke-linejoin="round"/>
<path d="M6.15166 10.9997H6.99817" stroke="#0A2C20" stroke-width="1.5" stroke-linecap="round" stroke-linejoin="round"/>
<path d="M8.92213 14.0012H4.99742C3.89239 14.0012 2.99658 13.1054 2.99658 12.0003V4.99742C2.99658 3.89239 3.89239 2.99658 4.99742 2.99658H18.0028C19.1079 2.99658 20.0037 3.89239 20.0037 4.99742V6.89821" stroke="#0A2C20" stroke-width="1.5" stroke-linecap="round" stroke-linejoin="round"/>
<path d="M9.9995 14.0012H5.11284C3.94406 14.0012 2.99658 13.0537 2.99658 11.8849V5.11284C2.99658 3.94406 3.94406 2.99658 5.11284 2.99658H17.8874C19.0562 2.99658 20.0037 3.94406 20.0037 5.11284V6.89821" stroke="#0A2C20" stroke-width="1.5" stroke-linecap="round" stroke-linejoin="round"/>
<path d="M10.0853 9.91343C9.30692 9.13155 9.30834 7.86714 10.0885 7.08701C10.8686 6.30687 12.133 6.30545 12.9149 7.08384" stroke="#0A2C20" stroke-width="1.5" stroke-linecap="round" stroke-linejoin="round"/>
<path fill-rule="evenodd" clip-rule="evenodd" d="M21.0038 10.9999V20.0037C21.0038 20.5562 20.5559 21.0041 20.0034 21.0041H14.0009C13.4484 21.0041 13.0005 20.5562 13.0005 20.0037V10.9999C13.0005 10.4474 13.4484 9.99951 14.0009 9.99951H20.0034C20.5559 9.99951 21.0038 10.4474 21.0038 10.9999Z" stroke="#0A2C20" stroke-width="1.5" stroke-linecap="round" stroke-linejoin="round"/>
<path d="M21.0038 14.0012H13.0005" stroke="#0A2C20" stroke-width="1.5" stroke-linecap="round" stroke-linejoin="round"/>
<path d="M15.7517 16.3018C15.724 16.3018 15.7017 16.3241 15.7017 16.3518C15.7017 16.3794 15.724 16.4018 15.7517 16.4018C15.7793 16.4018 15.8017 16.3794 15.8017 16.3518V16.3518C15.8017 16.3241 15.7793 16.3018 15.7517 16.3018" stroke="#0A2C20" stroke-width="1.5" stroke-linecap="round" stroke-linejoin="round"/>
<path d="M18.2526 16.3018C18.225 16.3018 18.2026 16.3241 18.2026 16.3518C18.2026 16.3794 18.225 16.4018 18.2526 16.4018C18.2803 16.4018 18.3027 16.3794 18.3027 16.3518V16.3518C18.3027 16.3241 18.2803 16.3018 18.2526 16.3018" stroke="#0A2C20" stroke-width="1.5" stroke-linecap="round" stroke-linejoin="round"/>
<path d="M15.7517 18.603C15.724 18.603 15.7017 18.6254 15.7017 18.653C15.7017 18.6807 15.724 18.7031 15.7517 18.7031C15.7793 18.7031 15.8017 18.6807 15.8017 18.653V18.653C15.8017 18.6398 15.7964 18.6271 15.787 18.6177C15.7777 18.6083 15.7649 18.603 15.7517 18.603" stroke="#0A2C20" stroke-width="1.5" stroke-linecap="round" stroke-linejoin="round"/>
<path d="M18.2526 18.603C18.225 18.603 18.2026 18.6254 18.2026 18.653C18.2026 18.6807 18.225 18.7031 18.2526 18.7031C18.2803 18.7031 18.3027 18.6807 18.3027 18.653V18.653C18.3027 18.6398 18.2974 18.6271 18.288 18.6177C18.2786 18.6083 18.2659 18.603 18.2526 18.603" stroke="#0A2C20" stroke-width="1.5" stroke-linecap="round" stroke-linejoin="round"/>
</svg>
