<svg width="25" height="24" viewBox="0 0 25 24" fill="none" xmlns="http://www.w3.org/2000/svg">
<path fill-rule="evenodd" clip-rule="evenodd" d="M6.66602 18.5841C8.23502 17.0591 10.358 16.1211 12.689 16.1211C14.997 16.1211 17.097 17.0401 18.666 18.5371C17.097 20.0621 14.974 21.0001 12.643 21.0001C10.335 21.0001 8.23502 20.0811 6.66602 18.5841Z" stroke="black" stroke-width="1.5" stroke-linecap="round" stroke-linejoin="round"/>
<path d="M4.64102 16.025C4.03102 14.811 3.66602 13.452 3.66602 12C3.66602 7.026 7.69202 3 12.666 3C17.64 3 21.666 7.026 21.666 12C21.666 13.45 21.303 14.81 20.689 16.023" stroke="black" stroke-width="1.5" stroke-linecap="round" stroke-linejoin="round"/>
<path d="M14.7873 7.87868C15.9589 9.05025 15.9589 10.9497 14.7873 12.1213C13.6158 13.2929 11.7163 13.2929 10.5447 12.1213C9.37312 10.9497 9.37312 9.05025 10.5447 7.87868C11.7163 6.70711 13.6158 6.70711 14.7873 7.87868" stroke="black" stroke-width="1.5" stroke-linecap="round" stroke-linejoin="round"/>
</svg>
